# Blender 4.3.2
# www.blender.org
mtllib Long Grass 2.mtl
o Plane.002
v -0.000000 2.000000 1.000000
v -0.000000 -0.000000 1.000000
v 0.000000 2.000000 -1.000000
v 0.000000 0.000000 -1.000000
v 1.000000 2.000000 -0.000000
v -1.000000 2.000000 -0.000000
v 1.000000 -0.000000 0.000000
v -1.000000 0.000000 0.000000
v 1.000000 0.000000 0.000000
v -1.000000 -0.000000 -0.000000
v 1.000000 2.000000 -0.000000
v -1.000000 2.000000 -0.000000
v 0.000000 0.000000 -1.000000
v 0.000000 0.000000 1.000000
v 0.000000 2.000000 -1.000000
v 0.000000 2.000000 1.000000
vn 1.0000 -0.0000 -0.0000
vn -0.0000 -0.0000 1.0000
vn -0.0000 -0.0000 -1.0000
vn -1.0000 -0.0000 -0.0000
vt 0.000000 1.000000
vt 0.000000 0.000000
vt 1.000000 0.000000
vt 1.000000 1.000000
vt 1.000000 1.000000
vt -0.000000 1.000000
vt 0.000000 0.000000
vt 1.000000 0.000000
vt 0.000000 0.000000
vt 1.000000 0.000000
vt 1.000000 1.000000
vt 0.000000 1.000000
s 0
usemtl Material.003
f 1/1/1 2/2/1 4/3/1 3/4/1
usemtl Material
f 5/5/2 6/6/2 8/7/2 7/8/2
usemtl Material.002
f 9/9/3 10/10/3 12/11/3 11/12/3
usemtl Material.009
f 13/9/4 14/10/4 16/11/4 15/12/4
