mtllib material.mtl
o Default
v 0.9375 0.09375 0.21875
v 0.9375 0.15625 0.21875
v 0.71875 0.15625 0.21875
v 0.71875 0.09375 0.21875
v 0.71875 0.09375 0.21875
v 0.71875 0.15625 0.28125
v 0.71875 0.15625 0.21875
v 0.71875 0.09375 0.28125
v 0.78125 0.09375 0.4375
v 0.78125 0.15625 0.5
v 0.78125 0.15625 0.4375
v 0.78125 0.09375 0.5
v 0.875 0.09375 0.4375
v 0.78125 0.15625 0.4375
v 0.875 0.15625 0.4375
v 0.78125 0.09375 0.4375
v 0.78125 0.09375 0.5
v 0.9375 0.15625 0.5
v 0.78125 0.15625 0.5
v 0.9375 0.09375 0.5
v 0.9375 0.09375 0.5
v 0.9375 0.15625 0.21875
v 0.9375 0.15625 0.5
v 0.9375 0.09375 0.21875
v 0.78125 0.09375 0.4375
v 0.9375 0.09375 0.4375
v 0.78125 0.09375 0.5
v 0.9375 0.09375 0.5
v 0.875 0.09375 0.28125
v 0.9375 0.09375 0.28125
v 0.875 0.09375 0.4375
v 0.9375 0.09375 0.4375
v 0.71875 0.09375 0.21875
v 0.9375 0.09375 0.21875
v 0.71875 0.09375 0.28125
v 0.9375 0.09375 0.28125
v 0.875 0.09375 0.28125
v 0.875 0.15625 0.4375
v 0.875 0.15625 0.28125
v 0.875 0.09375 0.4375
v 0.71875 0.15625 0.28125
v 0.9375 0.15625 0.21875
v 0.71875 0.15625 0.21875
v 0.9375 0.15625 0.28125
v 0.71875 0.09375 0.28125
v 0.875 0.15625 0.28125
v 0.71875 0.15625 0.28125
v 0.875 0.09375 0.28125
v 0.875 0.15625 0.4375
v 0.9375 0.15625 0.28125
v 0.875 0.15625 0.28125
v 0.9375 0.15625 0.4375
v 0.78125 0.15625 0.5
v 0.9375 0.15625 0.4375
v 0.78125 0.15625 0.4375
v 0.9375 0.15625 0.5
v 0.375 0.1875 0.4375
v 0.375 0.4375 0.1875
v 0.375 0.4375 0.4375
v 0.375 0.1875 0.1875
v 0.375 0.1875 0.8125
v 0.375 0.4375 0.5625
v 0.375 0.4375 0.8125
v 0.375 0.1875 0.5625
v 0.375 0.1875 0.5625
v 0.375 0.4375 0.8125
v 0.375 0.4375 0.5625
v 0.375 0.1875 0.8125
v 0.375 0.1875 0.1875
v 0.375 0.4375 0.4375
v 0.375 0.4375 0.1875
v 0.375 0.1875 0.4375
v 0.1875 0.1875 0.4375
v 0.0625 0.1875 0.5625
v 0.0625 0.1875 0.4375
v 0.1875 0.1875 0.5625
v 0.0625 0.3125 0.4375
v 0.1875 0.3125 0.5625
v 0.1875 0.3125 0.4375
v 0.0625 0.3125 0.5625
v 0.1875 0.1875 0.4375
v 0.0625 0.3125 0.4375
v 0.1875 0.3125 0.4375
v 0.0625 0.1875 0.4375
v 0.1875 0.1875 0.5625
v 0.1875 0.3125 0.4375
v 0.1875 0.3125 0.5625
v 0.1875 0.1875 0.4375
v 0.0625 0.1875 0.5625
v 0.1875 0.3125 0.5625
v 0.0625 0.3125 0.5625
v 0.1875 0.1875 0.5625
v 0.0625 0.1875 0.4375
v 0.0625 0.3125 0.5625
v 0.0625 0.3125 0.4375
v 0.0625 0.1875 0.5625
v 0.875 0 0.3125
v 0.125 0 0.75
v 0.125 0 0.25
v 0.875 0 0.6875
v 0.1875 0.25 0.3125
v 0.8125 0.25 0.625
v 0.8125 0.25 0.375
v 0.1875 0.25 0.6875
v 0.875 0 0.3125
v 0.1875 0.25 0.3125
v 0.8125 0.25 0.375
v 0.125 0 0.25
v 0.875 0 0.6875
v 0.8125 0.25 0.375
v 0.8125 0.25 0.625
v 0.875 0 0.3125
v 0.125 0 0.75
v 0.8125 0.25 0.625
v 0.1875 0.25 0.6875
v 0.875 0 0.6875
v 0.125 0 0.25
v 0.1875 0.25 0.6875
v 0.1875 0.25 0.3125
v 0.125 0 0.75
vt 0.5 0.3750000596046448
vt 0.625 0.4999999403953552
vt 0.5 0.4999999403953552
vt 0.625 0.3750000596046448
vt 0 5.960464477539063e-8
vt 0 0.4999999403953552
vt 0.5 5.960464477539063e-8
vt 1 0.4999999403953552
vt 0.5 1
vt 1 1
vt 0 0.7500000596046448
vt 0.25 1
vt 0 1
vt 0.25 0.7500000596046448
vt 0.375 0.3750000596046448
vt 1.4901161193847656e-8 0.3750000596046448
vt 0.375 5.960464477539063e-8
vt 1.4901161193847656e-8 5.960464477539063e-8
vt -1.4901161193847656e-8 0.3750000596046448
vt 0 0.3750000596046448
vt 0.625 5.960464477539063e-8
vt 1 5.960464477539063e-8
vn 0 0 -1
vn -1 0 0
vn 0 0 1
vn 1 0 0
vn 0 -1 0
vn 0 1 0
vn 0.09597543 0.26393244 -0.95975433
vn 0.08096104 0.22264287 -0.97153253
vn 0.9701425 0.24253563 0
vn 0.09709996 0.21847492 0.97099964
vn 0.08017658 0.26057389 0.962119
vn -0.9701425 0.24253563 0
g Rat
usemtl 1
f 1/1/1 3/2/1 2/3/1
f 1/1/1 4/4/1 3/2/1
f 5/1/2 6/2/2 7/3/2
f 5/1/2 8/4/2 6/2/2
f 9/1/2 10/2/2 11/3/2
f 9/1/2 12/4/2 10/2/2
f 13/1/1 14/2/1 15/3/1
f 13/1/1 16/4/1 14/2/1
f 17/1/3 18/2/3 19/3/3
f 17/1/3 20/4/3 18/2/3
f 21/1/4 22/2/4 23/3/4
f 21/1/4 24/4/4 22/2/4
f 25/3/5 26/2/5 27/1/5
f 26/2/5 28/4/5 27/1/5
f 29/3/5 30/2/5 31/1/5
f 30/2/5 32/4/5 31/1/5
f 33/3/5 34/2/5 35/1/5
f 34/2/5 36/4/5 35/1/5
f 37/1/2 38/2/2 39/3/2
f 37/1/2 40/4/2 38/2/2
f 41/1/6 42/2/6 43/3/6
f 41/1/6 44/4/6 42/2/6
f 45/1/3 46/2/3 47/3/3
f 45/1/3 48/4/3 46/2/3
f 49/1/6 50/2/6 51/3/6
f 49/1/6 52/4/6 50/2/6
f 53/1/6 54/2/6 55/3/6
f 53/1/6 56/4/6 54/2/6
f 57/5/4 58/3/4 59/6/4
f 57/5/4 60/7/4 58/3/4
f 61/7/4 62/6/4 63/3/4
f 61/7/4 64/5/4 62/6/4
f 65/8/2 66/9/2 67/10/2
f 65/8/2 68/3/2 66/9/2
f 69/3/2 70/10/2 71/9/2
f 69/3/2 72/8/2 70/10/2
f 73/11/5 74/12/5 75/13/5
f 73/11/5 76/14/5 74/12/5
f 77/11/6 78/12/6 79/13/6
f 77/11/6 80/14/6 78/12/6
f 81/11/1 82/12/1 83/13/1
f 81/11/1 84/14/1 82/12/1
f 85/11/4 86/12/4 87/13/4
f 85/11/4 88/14/4 86/12/4
f 89/11/3 90/12/3 91/13/3
f 89/11/3 92/14/3 90/12/3
f 93/11/2 94/12/2 95/13/2
f 93/11/2 96/14/2 94/12/2
f 97/5/5 98/15/5 99/16/5
f 97/5/5 100/17/5 98/15/5
f 101/18/6 102/15/6 103/19/6
f 101/18/6 104/17/6 102/15/6
f 105/5/7 106/15/7 107/20/7
f 105/5/8 108/17/8 106/15/8
f 109/5/9 110/15/9 111/20/9
f 109/5/9 112/17/9 110/15/9
f 113/18/10 114/15/10 115/16/10
f 113/18/11 116/17/11 114/15/11
f 117/21/12 118/8/12 119/2/12
f 117/21/12 120/22/12 118/8/12
