# Blender 4.3.2
# www.blender.org
mtllib Rock.mtl
o Cube
v -1.000000 0.000000 1.000000
v -1.000000 2.000000 1.000000
v -1.000000 0.000000 -1.000000
v -1.000000 2.000000 -1.000000
v 1.000000 0.000000 1.000000
v 1.000000 2.000000 1.000000
v 1.000000 0.000000 -1.000000
v 1.000000 2.000000 -1.000000
v -1.262953 0.450397 1.262953
v -1.368134 1.158334 1.368134
v -1.368134 1.158333 -1.368134
v -1.262953 0.450397 -1.262953
v 1.368134 1.158333 -1.368134
v 1.262953 0.450397 -1.262953
v 1.368134 1.158333 1.368134
v 1.262953 0.450397 1.262953
vn -0.9162 0.4007 -0.0000
vn -0.0000 0.4007 -0.9162
vn 0.9162 0.4007 -0.0000
vn -0.0000 0.4007 0.9162
vn -0.0000 -1.0000 -0.0000
vn -0.0000 1.0000 -0.0000
vn -0.0000 -0.5042 0.8636
vn -0.0000 -0.1470 0.9891
vn 0.8636 -0.5042 -0.0000
vn 0.9891 -0.1470 -0.0000
vn -0.0000 -0.5042 -0.8636
vn -0.0000 -0.1470 -0.9891
vn -0.8636 -0.5042 -0.0000
vn -0.9891 -0.1470 -0.0000
vt 0.517857 0.000000
vt 0.625000 0.000000
vt 0.625000 0.250000
vt 0.517857 0.250000
vt 0.625000 0.500000
vt 0.517857 0.500000
vt 0.625000 0.750000
vt 0.517857 0.750000
vt 0.625000 1.000000
vt 0.517857 1.000000
vt 0.125000 0.500000
vt 0.375000 0.500000
vt 0.375000 0.750000
vt 0.125000 0.750000
vt 0.875000 0.500000
vt 0.875000 0.750000
vt 0.434524 0.750000
vt 0.434524 1.000000
vt 0.375000 1.000000
vt 0.434524 0.500000
vt 0.375000 0.250000
vt 0.434524 0.250000
vt 0.375000 0.000000
vt 0.434524 0.000000
s 0
f 10/1/1 2/2/1 4/3/1 11/4/1
f 11/4/2 4/3/2 8/5/2 13/6/2
f 13/6/3 8/5/3 6/7/3 15/8/3
f 15/8/4 6/7/4 2/9/4 10/10/4
f 3/11/5 7/12/5 5/13/5 1/14/5
f 8/5/6 4/15/6 2/16/6 6/7/6
f 5/13/7 16/17/7 9/18/7 1/19/7
f 16/17/8 15/8/8 10/10/8 9/18/8
f 7/12/9 14/20/9 16/17/9 5/13/9
f 14/20/10 13/6/10 15/8/10 16/17/10
f 3/21/11 12/22/11 14/20/11 7/12/11
f 12/22/12 11/4/12 13/6/12 14/20/12
f 1/23/13 9/24/13 12/22/13 3/21/13
f 9/24/14 10/1/14 11/4/14 12/22/14
